<?xml version="1.0" encoding="UTF-8" standalone="no"?>
<!DOCTYPE svg PUBLIC "-//W3C//DTD SVG 1.1//EN"
 "http://www.w3.org/Graphics/SVG/1.1/DTD/svg11.dtd">
<!-- Generated by graphviz version 15.0.0 (20260523.1842)
 -->
<!-- Pages: 1 -->
<svg width="421pt" height="137pt"
 viewBox="0.00 0.00 421.00 137.00" xmlns="http://www.w3.org/2000/svg" xmlns:xlink="http://www.w3.org/1999/xlink">
<g id="graph0" class="graph" transform="scale(1 1) rotate(0) translate(4 133.3)">
<polygon fill="white" stroke="none" points="-4,4 -4,-133.3 417,-133.3 417,4 -4,4"/>
<!-- R_Esq (&#45;60º) -->
<g id="node1" class="node">
<title>R_Esq (&#45;60º)</title>
<polygon fill="lightgray" stroke="black" points="63.25,-129.3 0,-129.3 0,-110.8 63.25,-110.8 63.25,-129.3"/>
<text xml:space="preserve" text-anchor="middle" x="31.62" y="-116.75" font-family="Times New Roman,serif" font-size="9.00">R_Esq (&#45;60º)</text>
</g>
<!-- Volante -->
<g id="node7" class="node">
<title>Volante</title>
<ellipse fill="lightblue" stroke="black" cx="118.62" cy="-32.53" rx="29.88" ry="29.88"/>
<text xml:space="preserve" text-anchor="middle" x="118.62" y="-29.23" font-family="Times New Roman,serif" font-size="9.00">Volante</text>
</g>
<!-- R_Esq (&#45;60º)&#45;&gt;Volante -->
<g id="edge1" class="edge">
<title>R_Esq (&#45;60º)&#45;&gt;Volante</title>
<path fill="none" stroke="red" stroke-width="3.54" d="M40.28,-110.54C51.14,-99.87 70.36,-80.97 87.05,-64.57"/>
<polygon fill="red" stroke="red" stroke-width="3.54" points="89.03,-67.53 93.71,-58.02 84.12,-62.54 89.03,-67.53"/>
<text xml:space="preserve" text-anchor="middle" x="77.46" y="-85.2" font-family="Times New Roman,serif" font-size="8.00">&#45;17.20</text>
</g>
<!-- R_Esq_C (&#45;30º) -->
<g id="node2" class="node">
<title>R_Esq_C (&#45;30º)</title>
<polygon fill="lightgray" stroke="black" points="155.5,-129.3 81.75,-129.3 81.75,-110.8 155.5,-110.8 155.5,-129.3"/>
<text xml:space="preserve" text-anchor="middle" x="118.62" y="-116.75" font-family="Times New Roman,serif" font-size="9.00">R_Esq_C (&#45;30º)</text>
</g>
<!-- R_Esq_C (&#45;30º)&#45;&gt;Volante -->
<g id="edge2" class="edge">
<title>R_Esq_C (&#45;30º)&#45;&gt;Volante</title>
<path fill="none" stroke="green" stroke-width="1.25" d="M118.62,-110.54C118.62,-101.98 118.62,-88.13 118.62,-74.52"/>
<polygon fill="green" stroke="green" stroke-width="1.25" points="122.13,-74.65 118.63,-64.65 115.13,-74.65 122.13,-74.65"/>
<text xml:space="preserve" text-anchor="middle" x="125.38" y="-85.2" font-family="Times New Roman,serif" font-size="8.00">5.75</text>
</g>
<!-- R_Frente (0º) -->
<g id="node3" class="node">
<title>R_Frente (0º)</title>
<polygon fill="lightgray" stroke="black" points="413,-129.3 348.25,-129.3 348.25,-110.8 413,-110.8 413,-129.3"/>
<text xml:space="preserve" text-anchor="middle" x="380.62" y="-116.75" font-family="Times New Roman,serif" font-size="9.00">R_Frente (0º)</text>
</g>
<!-- R_Dir_C (+30º) -->
<g id="node4" class="node">
<title>R_Dir_C (+30º)</title>
<polygon fill="lightgray" stroke="black" points="329.88,-129.3 255.38,-129.3 255.38,-110.8 329.88,-110.8 329.88,-129.3"/>
<text xml:space="preserve" text-anchor="middle" x="292.62" y="-116.75" font-family="Times New Roman,serif" font-size="9.00">R_Dir_C (+30º)</text>
</g>
<!-- Acelerar -->
<g id="node6" class="node">
<title>Acelerar</title>
<ellipse fill="lightblue" stroke="black" cx="259.62" cy="-32.53" rx="32.53" ry="32.53"/>
<text xml:space="preserve" text-anchor="middle" x="259.62" y="-29.23" font-family="Times New Roman,serif" font-size="9.00">Acelerar</text>
</g>
<!-- R_Dir_C (+30º)&#45;&gt;Acelerar -->
<g id="edge3" class="edge">
<title>R_Dir_C (+30º)&#45;&gt;Acelerar</title>
<path fill="none" stroke="green" stroke-width="0.16" d="M289.34,-110.54C285.86,-101.53 280.13,-86.66 274.62,-72.38"/>
<polygon fill="green" stroke="green" stroke-width="0.16" points="278.01,-71.45 271.14,-63.38 271.48,-73.97 278.01,-71.45"/>
<text xml:space="preserve" text-anchor="middle" x="288.7" y="-85.2" font-family="Times New Roman,serif" font-size="8.00">0.32</text>
</g>
<!-- R_Dir (+60º) -->
<g id="node5" class="node">
<title>R_Dir (+60º)</title>
<polygon fill="lightgray" stroke="black" points="237.62,-129.3 173.62,-129.3 173.62,-110.8 237.62,-110.8 237.62,-129.3"/>
<text xml:space="preserve" text-anchor="middle" x="205.62" y="-116.75" font-family="Times New Roman,serif" font-size="9.00">R_Dir (+60º)</text>
</g>
<!-- R_Dir (+60º)&#45;&gt;Acelerar -->
<g id="edge4" class="edge">
<title>R_Dir (+60º)&#45;&gt;Acelerar</title>
<path fill="none" stroke="red" stroke-width="0.17" d="M211,-110.54C217.17,-100.77 227.68,-84.12 237.35,-68.8"/>
<polygon fill="red" stroke="red" stroke-width="0.17" points="240.1,-71.01 242.48,-60.69 234.18,-67.28 240.1,-71.01"/>
<text xml:space="preserve" text-anchor="middle" x="236.04" y="-85.2" font-family="Times New Roman,serif" font-size="8.00">&#45;0.34</text>
</g>
<!-- R_Dir (+60º)&#45;&gt;Volante -->
<g id="edge5" class="edge">
<title>R_Dir (+60º)&#45;&gt;Volante</title>
<path fill="none" stroke="green" stroke-width="1.01" d="M196.97,-110.54C185.59,-99.36 165.04,-79.15 147.84,-62.25"/>
<polygon fill="green" stroke="green" stroke-width="1.01" points="150.4,-59.86 140.81,-55.34 145.49,-64.85 150.4,-59.86"/>
<text xml:space="preserve" text-anchor="middle" x="184.23" y="-85.2" font-family="Times New Roman,serif" font-size="8.00">4.57</text>
</g>
</g>
</svg>
